<?xml version="1.0" encoding="UTF-8" standalone="no"?>
<!-- Generator: Adobe Illustrator 16.0.0, SVG Export Plug-In . SVG Version: 6.00 Build 0)  -->

<svg
   xmlns:dc="http://purl.org/dc/elements/1.1/"
   xmlns:cc="http://creativecommons.org/ns#"
   xmlns:rdf="http://www.w3.org/1999/02/22-rdf-syntax-ns#"
   xmlns:svg="http://www.w3.org/2000/svg"
   xmlns="http://www.w3.org/2000/svg"
   xmlns:sodipodi="http://sodipodi.sourceforge.net/DTD/sodipodi-0.dtd"
   xmlns:inkscape="http://www.inkscape.org/namespaces/inkscape"
   version="1.1"
   id="Ebene_1"
   x="0px"
   y="0px"
   width="936.28058"
   height="270.77344"
   viewBox="0 -534.48 936.28062 270.77343"
   enable-background="new 0 -534.48 1425.143 924.52"
   xml:space="preserve"
   sodipodi:docname="logo.svg"
   inkscape:version="0.92.4 5da689c313, 2019-01-14"><metadata
   id="metadata155"><rdf:RDF><cc:Work
       rdf:about=""><dc:format>image/svg+xml</dc:format><dc:type
         rdf:resource="http://purl.org/dc/dcmitype/StillImage" /><dc:title></dc:title></cc:Work></rdf:RDF></metadata><defs
   id="defs153"><inkscape:path-effect
   effect="spiro"
   id="path-effect1022"
   is_visible="true" />





















	</defs><sodipodi:namedview
   pagecolor="#ffffff"
   bordercolor="#666666"
   borderopacity="1"
   objecttolerance="10"
   gridtolerance="10"
   guidetolerance="10"
   inkscape:pageopacity="0"
   inkscape:pageshadow="2"
   inkscape:window-width="2560"
   inkscape:window-height="1440"
   id="namedview151"
   showgrid="false"
   inkscape:zoom="2.8880231"
   inkscape:cx="331.23156"
   inkscape:cy="126.7796"
   inkscape:window-x="632"
   inkscape:window-y="2160"
   inkscape:window-maximized="0"
   inkscape:current-layer="g148"
   inkscape:snap-global="false"
   showguides="false"
   inkscape:guide-bbox="true"><sodipodi:guide
     position="233.58935,138.1223"
     orientation="0,1"
     id="guide1042"
     inkscape:locked="false" /></sodipodi:namedview>













<g
   id="g148"
   transform="translate(-76.869186,-988.23143)">
	<circle
   style="opacity:1;fill:#FCE7D9;fill-opacity:0.99108468;fill-rule:nonzero;stroke:none;stroke-width:20;stroke-linecap:round;stroke-linejoin:round;stroke-miterlimit:4;stroke-dasharray:none;stroke-dashoffset:0;stroke-opacity:1"
   id="path4518"
   cx="201.12605"
   cy="530.48834"
   r="14.139574" /><path
   style="opacity:1;fill:#FCE7D9;fill-opacity:1;fill-rule:nonzero;stroke:none;stroke-width:20;stroke-linecap:round;stroke-linejoin:round;stroke-miterlimit:4;stroke-dasharray:none;stroke-dashoffset:0;stroke-opacity:1"
   d="m 113.97461,21.378906 c -3.82681,0.0558 -7.64419,0.390163 -11.41602,1.064453 -10.058204,1.79811 -19.805077,6.11734 -27.181637,13.1875 -8.13948,7.80139 -13.079417,18.849408 -13.466797,30.117188 -3.99622,2.10888 -8.40405,3.433599 -12.90039,3.880859 -7.77735,0.77365 -15.77305,-1.047902 -23.375,0.767578 -0.94936,0.22673 -1.896652,0.513409 -2.732422,1.017578 -0.835767,0.504183 -1.557769,1.246929 -1.88086,2.167969 -0.216178,0.61625 -0.244849,1.291614 -0.125,1.933594 0.119849,0.64197 0.383642,1.251141 0.736328,1.800781 0.705377,1.09928 1.738673,1.944403 2.789063,2.720703 7.26757,5.37114 16.093143,8.309652 25.001953,9.826172 6.86368,1.16839 13.861877,1.538693 20.810547,1.101563 -3.66233,3.94842 -7.987704,7.281424 -12.740234,9.814456 -6.28163,3.348 -13.215578,5.26933 -20.148438,6.88281 -0.26831,0.0624 -0.54186,0.12737 -0.78125,0.26367 -0.1197,0.0682 -0.228766,0.15351 -0.316406,0.25977 -0.0876,0.10626 -0.153064,0.23363 -0.177735,0.36914 -0.0264,0.14509 -0.006,0.29593 0.04688,0.43359 0.0529,0.13766 0.138604,0.26227 0.240234,0.36914 0.20326,0.21375 0.467534,0.35671 0.728516,0.49414 5.579858,2.93831 11.764373,4.75554 18.058593,5.14453 5.29451,0.3272 10.65039,-0.35655 15.69336,-2.00195 1.34499,1.59619 2.308079,3.51138 2.787109,5.54297 0.46069,1.95383 0.473496,4.01326 0.03711,5.97266 -15.37853,8.26449 -26.797435,23.55125 -30.359375,40.64257 -3.6325,17.42976 0.937813,36.29374 11.751954,50.4375 7.82674,10.23656 18.634909,17.96288 30.380859,23.26172 11.74595,5.29884 24.432218,8.26264 37.195318,10.03711 27.44543,3.8158 55.51197,2.23113 82.66211,-3.30859 14.77395,-3.01449 29.43278,-7.2415 42.72851,-14.35352 8.03418,-4.29756 15.56183,-9.71548 21.93359,-16.20508 -10.74736,-0.50447 -16.87693,-6.6294 -16.87696,-17.88281 V 171.5332 h -8.76757 v -9.96289 h 8.76757 v -12.15429 h 12.45313 v 12.15429 h 14.24609 v 9.96289 h -14.24609 v 25.30469 c 0,5.18064 2.59092,7.9707 7.37305,7.9707 2.49495,0 4.89097,-0.65414 6.75586,-2.03711 0.38587,-0.6187 0.77106,-1.2388 1.13672,-1.87109 6.45429,-11.16091 9.51011,-24.10867 9.80664,-36.99805 0.46344,-20.14501 -5.77657,-40.31332 -17.1211,-56.96679 -3.5925,-5.2737 -7.67541,-10.200697 -12.02344,-14.871097 -2.1052,-2.26129 -4.32093,-4.498975 -7.04687,-5.953125 -1.36297,-0.72707 -2.84682,-1.247857 -4.38086,-1.429687 -1.53403,-0.18184 -3.11914,-0.01761 -4.54687,0.572265 -1.32556,0.5476 -2.4842,1.444591 -3.5,2.457032 -1.01588,1.012449 -1.9026,2.143686 -2.81055,3.253906 -6.7215,8.21886 -14.85325,15.390706 -24.28125,20.273436 -13.29796,6.88697 -28.51482,8.95276 -43.43164,10.27734 -1.00835,0.0895 -2.05344,0.17352 -3.00782,-0.16406 -0.47719,-0.16879 -0.92218,-0.44667 -1.24804,-0.83398 -0.32586,-0.38732 -0.52581,-0.88885 -0.50391,-1.39453 0.0222,-0.51221 0.26472,-0.99494 0.58594,-1.39453 0.32121,-0.3996 0.72102,-0.72778 1.10937,-1.0625 6.48659,-5.59084 10.79428,-13.47705 12.76563,-21.810551 1.97138,-8.33349 1.69654,-17.096921 -0.0117,-25.488281 -2.95598,-14.519582 -10.60455,-28.522556 -22.89648,-36.796876 -7.49709,-5.046669 -16.334,-7.761071 -25.2168,-9.425781 -6.27677,-1.17631 -12.68448,-1.858585 -19.0625,-1.765625 z M 95.394531,54.751953 a 10.690703,10.690703 0 0 1 10.689449,10.691406 10.690703,10.690703 0 0 1 -0.5996,3.494141 22.697018,22.697018 0 0 0 -9.316411,-2.021484 22.697018,22.697018 0 0 0 -10.623047,2.65625 10.690703,10.690703 0 0 1 -0.841797,-4.128907 10.690703,10.690703 0 0 1 10.691406,-10.691406 z M 888.36133,132.61523 v 9.96289 h 2.09179 c 5.08101,0 7.47266,2.7882 7.47266,7.57032 v 18.92968 c 0,6.17692 1.79227,8.86695 5.77734,10.16211 -3.98509,1.29516 -5.77734,3.98519 -5.77734,10.16211 v 18.92969 c 0,4.78213 -2.39164,7.57227 -7.47266,7.57227 h -2.09179 v 9.96093 h 4.98047 c 11.25792,0 17.03711,-5.67775 17.03711,-16.23828 v -20.52343 c 0,-3.28771 1.69287,-4.78125 4.38281,-4.78125 h 3.38867 v -10.16211 h -3.38867 c -2.68994,0 -4.38281,-1.4955 -4.38281,-4.78321 v -20.52343 c 0,-10.56053 -5.77919,-16.23829 -17.03711,-16.23829 z m -784.82031,0.48829 h 4.98242 v 9.96289 h -2.0918 c -4.98138,0 -7.373046,2.79013 -7.373046,7.57226 v 18.92969 c 0,6.17692 -1.893807,8.86696 -5.878906,10.16211 3.9851,1.29516 5.878906,3.9852 5.878906,10.16211 v 18.92969 c 0,4.78212 2.391666,7.57031 7.373046,7.57031 h 2.0918 v 9.96289 h -4.98242 c -11.25794,0 -16.935551,-5.67775 -16.935551,-16.23828 v -20.52344 c 0,-3.28771 -1.694805,-4.7832 -4.484375,-4.7832 h -3.28711 v -10.16211 h 3.28711 c 2.78957,0 4.484375,-1.49354 4.484375,-4.78125 v -20.52344 c 0,-10.56053 5.677611,-16.24023 16.935551,-16.24023 z m 387.80859,4.84765 c -4.58287,0 -7.9707,3.28632 -7.9707,7.47071 0,4.18433 3.38783,7.47265 7.9707,7.47265 4.6825,0 7.9707,-3.38787 7.9707,-7.77148 0,-4.08474 -3.38783,-7.17188 -7.9707,-7.17188 z m 179.97266,0 c -4.58288,0 -7.97071,3.28632 -7.97071,7.47071 0,4.18433 3.38783,7.47265 7.97071,7.47265 4.6825,0 7.96875,-3.38787 7.96875,-7.77148 0,-4.08474 -3.38588,-7.17188 -7.96875,-7.17188 z m -370.89258,2.98828 v 73.92383 h 12.45508 v -26.90039 c 0,-10.66016 5.97689,-16.03906 14.84375,-16.03906 7.97022,0 12.65234,4.58225 12.65234,14.04687 v 28.89258 h 12.45312 v -30.48633 c 0,-16.04005 -9.46445,-23.3125 -22.21679,-23.3125 -7.37245,0 -13.64769,2.38982 -17.73242,6.77344 v -26.89844 z m 426.00976,3.1875 c -21.41995,0 -37.36132,15.04501 -37.36133,35.86719 0,20.82218 15.9414,35.86522 37.26172,35.86524 11.45718,0 21.21953,-4.08456 27.69532,-11.65626 l -8.36914,-7.9707 c -5.08101,5.57915 -11.35609,8.26953 -18.62891,8.26953 -14.44601,0 -24.9082,-10.16143 -24.9082,-24.50781 0,-14.34638 10.46219,-24.50978 24.9082,-24.50976 7.27282,0 13.5479,2.6904 18.62891,8.16992 l 8.36914,-7.8711 c -6.47579,-7.5717 -16.23816,-11.65625 -27.59571,-11.65625 z m -606.94336,0.50782 h 50.91016 v 10.85937 H 132.44727 V 173.625 h 33.67382 v 10.66016 h -33.67382 v 19.22851 h 39.35351 v 10.85938 h -52.30469 z m 505.9961,5.27148 v 12.1543 h -8.76758 v 9.96289 h 8.76758 v 25.60351 c 0,11.75606 6.67559,17.9336 18.33203,17.9336 4.48324,0 8.96625,-1.19488 11.95508,-3.58594 l -3.48633,-8.86719 c -1.89293,1.49441 -4.38429,2.19141 -6.97461,2.19141 -4.78213,0 -7.37305,-2.79004 -7.37305,-7.97071 v -25.30468 h 14.24805 v -9.96289 h -14.24805 v -12.1543 z m -411.24024,10.66797 c 12.75234,0 22.2168,7.27245 22.2168,23.3125 v 30.48633 h -12.45313 v -28.89258 c 0,-9.46463 -4.68408,-14.04688 -12.65429,-14.04688 -8.86686,0 -14.84375,5.38086 -14.84375,16.04102 v 26.89844 h -12.45313 v -53.20117 h 11.85547 v 6.875 c 4.08473,-4.88177 10.56108,-7.47266 18.33203,-7.47266 z m 237.40039,0.49023 c -14.34638,0 -23.41211,6.57433 -23.41211,16.63672 0,21.22069 32.87696,11.65634 32.87696,21.81836 0,3.68623 -3.28762,5.87891 -11.15821,5.87891 -6.67505,0 -13.84875,-2.19279 -18.53125,-5.28125 l -4.78125,9.46484 c 4.78213,3.38734 13.64877,5.97852 22.51563,5.97852 14.94415,0 24.10937,-6.47669 24.10937,-16.43946 0,-20.82218 -32.87695,-11.25778 -32.87695,-22.01757 0,-3.48697 3.58649,-5.97657 11.1582,-5.97657 5.08101,0 10.16118,0.99555 15.24219,3.98438 l 4.7832,-9.46485 c -4.7821,-2.8892 -12.85221,-4.58203 -19.92578,-4.58203 z m 81.56446,0 c -8.56798,0 -16.8388,2.1906 -22.51758,6.57422 l 4.88281,9.06641 c 3.9851,-3.28771 10.16102,-5.2793 16.13867,-5.2793 8.86686,0 13.25196,4.28382 13.25196,11.55664 v 0.79688 h -13.75 c -16.13968,0 -22.11719,6.97298 -22.11719,15.83984 0,9.26537 7.6716,15.94141 19.82617,15.94141 7.97021,0 13.74946,-2.59096 16.73828,-7.17383 v 6.47656 h 11.75586 v -31.18359 c 0,-15.34266 -8.86632,-22.61524 -24.20898,-22.61524 z m 58.14062,0 c -14.34638,0 -23.41211,6.57433 -23.41211,16.63672 0,21.22069 32.87696,11.65634 32.87696,21.81836 0,3.68623 -3.28763,5.87891 -11.15821,5.87891 -6.67505,0 -13.84875,-2.19279 -18.53125,-5.28125 l -4.78125,9.46484 c 4.78213,3.38734 13.64877,5.97852 22.51563,5.97852 14.94414,0 24.10937,-6.47669 24.10937,-16.43946 0,-20.82218 -32.87695,-11.25778 -32.87695,-22.01757 0,-3.48697 3.5865,-5.97657 11.1582,-5.97657 5.08101,0 10.16313,0.99555 15.24414,3.98438 l 4.78125,-9.46485 c -4.78213,-2.8892 -12.85222,-4.58203 -19.92578,-4.58203 z m 195.85742,0 c -16.33893,0 -28.29492,11.25684 -28.29492,27.19727 0,15.94042 11.95599,27.29883 28.29492,27.29883 16.53819,0 28.39258,-11.35841 28.39258,-27.29883 0,-15.94043 -11.85439,-27.19727 -28.39258,-27.19727 z m 69.50977,0 c -7.77096,0 -14.24729,2.58896 -18.33203,7.47071 v -6.87305 h -11.85547 v 53.20117 h 12.45312 v -26.90039 c 0,-10.66016 5.97885,-16.03906 14.84571,-16.03906 7.97021,0 12.65234,4.58225 12.65234,14.04687 v 28.89258 h 12.45313 v -30.48633 c 0,-16.04005 -9.46446,-23.3125 -22.2168,-23.3125 z m -491.33203,0.59766 v 30.38672 c 0,16.04005 9.26702,23.51172 22.91601,23.51172 6.8743,0 13.14967,-2.59091 17.13477,-7.47266 v 6.77539 h 11.85547 V 161.66211 H 404.8457 v 26.89844 c 0,10.66016 -5.87732,16.04101 -14.54492,16.04101 -7.87059,0 -12.45312,-4.58221 -12.45312,-14.24609 v -28.69336 z m 119.67969,0 v 53.20117 h 12.45312 v -53.20117 z m 179.97265,0 v 53.20117 h 12.45313 v -53.20117 z m 122.16992,9.96289 c 9.06612,0 15.83985,6.4747 15.83985,16.63672 0,10.16202 -6.77373,16.63867 -15.83985,16.63867 -8.96648,0 -15.74218,-6.47665 -15.74218,-16.63867 0,-10.16202 6.7757,-16.63672 15.74218,-16.63672 z m -255.0957,20.42383 h 12.85352 v 6.17578 c -2.09218,5.47952 -7.37389,8.26953 -13.45118,8.26953 -6.37617,0 -10.1621,-2.8898 -10.1621,-7.37305 0,-3.88548 2.29141,-7.07226 10.75976,-7.07226 z"
   transform="translate(76.869186,453.75143)"
   id="path1020"
   inkscape:connector-curvature="0" />

</g>
</svg>
