<svg xmlns="http://www.w3.org/2000/svg" width="401.482" height="401.482" viewBox="0 -534.48 401.482 401.482"><circle r="190.741" cy="-333.739" cx="200.741" fill="#fc7112"/><path d="M161.085-440.915c-3.691.054-7.373.376-11.011 1.026-9.702 1.735-19.103 5.9-26.218 12.72-7.85 7.525-12.615 18.181-12.989 29.05a33.939 33.939 0 0 1-12.443 3.742c-7.501.747-15.213-1.01-22.546.74-.915.22-1.829.496-2.635.982-.806.486-1.503 1.203-1.814 2.091a3.643 3.643 0 0 0-.12 1.865c.115.62.37 1.207.71 1.737.68 1.06 1.676 1.876 2.69 2.624 7.01 5.181 15.522 8.015 24.115 9.478a87.138 87.138 0 0 0 20.072 1.063 46.867 46.867 0 0 1-12.288 9.466c-6.06 3.23-12.747 5.082-19.434 6.639-.259.06-.523.122-.754.254-.115.066-.22.148-.305.25a.79.79 0 0 0-.171.356.79.79 0 0 0 .045.419 1.1 1.1 0 0 0 .232.356c.196.206.45.344.702.476 5.382 2.834 11.348 4.587 17.418 4.962a40.826 40.826 0 0 0 15.137-1.93 12.944 12.944 0 0 1 2.688 5.346c.445 1.884.457 3.87.036 5.76-14.833 7.972-25.847 22.717-29.282 39.202-3.504 16.811.904 35.006 11.335 48.648 7.549 9.874 17.974 17.326 29.303 22.437 11.33 5.11 23.566 7.97 35.876 9.681 26.472 3.68 53.543 2.152 79.73-3.191 14.25-2.908 28.39-6.985 41.213-13.845 7.75-4.145 14.853-9.536 21.156-15.63 3.612-3.493 6.49-7.691 9.36-11.815.403-.578.745-1.195 1.097-1.805 6.226-10.765 9.173-23.254 9.46-35.686.446-19.43-5.573-38.883-16.515-54.946-3.465-5.087-7.403-9.84-11.597-14.344-2.03-2.18-4.167-4.34-6.797-5.742-1.314-.701-2.746-1.203-4.225-1.379-1.48-.175-3.009-.017-4.386.552-1.278.528-2.396 1.394-3.376 2.37-.98.977-1.835 2.068-2.71 3.139-6.484 7.927-14.327 14.844-23.42 19.554-12.827 6.643-27.504 8.635-41.892 9.913-.972.086-1.98.167-2.9-.159a2.766 2.766 0 0 1-1.205-.804c-.314-.374-.507-.857-.486-1.345.022-.494.256-.96.566-1.345.31-.385.695-.702 1.07-1.025 6.256-5.392 10.411-12.999 12.312-21.037 1.902-8.038 1.637-16.49-.012-24.584-2.85-14.005-10.228-27.511-22.084-35.492-7.231-4.868-15.755-7.486-24.322-9.091-6.055-1.135-12.235-1.793-18.387-1.703zm-17.921 32.19c5.695 0 10.31 4.617 10.31 10.311a10.315 10.315 0 0 1-.578 3.37 21.892 21.892 0 0 0-8.986-1.95 21.904 21.904 0 0 0-10.246 2.563 10.312 10.312 0 0 1-.812-3.983c0-5.695 4.616-10.312 10.312-10.312zm136.07 153.959c-152.054 36.266-76.027 18.133 0 0z" fill="#fff"/><circle cx="200.741" cy="-333.739" r="171.322" fill="none" stroke="#fff" stroke-width="10" stroke-linecap="round"/></svg>